<mxfile host="app.diagrams.net" agent="Mozilla/5.0 (X11; Linux x86_64; rv:141.0) Gecko/20100101 Firefox/141.0" version="28.1.1">
  <diagram name="Page-1" id="623hevkm62DI3NVp4ts4">
    <mxGraphModel dx="2030" dy="563" grid="1" gridSize="10" guides="1" tooltips="1" connect="1" arrows="1" fold="1" page="1" pageScale="1" pageWidth="850" pageHeight="1100" math="0" shadow="0">
      <root>
        <mxCell id="0" />
        <mxCell id="1" parent="0" />
        <mxCell id="oGoOd0Z_6vORa3Gb5G-0-8" style="edgeStyle=orthogonalEdgeStyle;rounded=0;orthogonalLoop=1;jettySize=auto;html=1;entryX=0;entryY=0.5;entryDx=0;entryDy=0;" edge="1" parent="1" source="oGoOd0Z_6vORa3Gb5G-0-1" target="oGoOd0Z_6vORa3Gb5G-0-2">
          <mxGeometry relative="1" as="geometry" />
        </mxCell>
        <mxCell id="oGoOd0Z_6vORa3Gb5G-0-9" style="edgeStyle=orthogonalEdgeStyle;rounded=0;orthogonalLoop=1;jettySize=auto;html=1;entryX=0;entryY=0.5;entryDx=0;entryDy=0;" edge="1" parent="1" source="oGoOd0Z_6vORa3Gb5G-0-1" target="oGoOd0Z_6vORa3Gb5G-0-6">
          <mxGeometry relative="1" as="geometry">
            <Array as="points">
              <mxPoint x="-120" y="405" />
            </Array>
          </mxGeometry>
        </mxCell>
        <mxCell id="oGoOd0Z_6vORa3Gb5G-0-1" value="SAAKM_NOT_QUEUED" style="ellipse;whiteSpace=wrap;html=1;fontSize=16;fontStyle=0" vertex="1" parent="1">
          <mxGeometry x="-210" y="60" width="190" height="90" as="geometry" />
        </mxCell>
        <mxCell id="oGoOd0Z_6vORa3Gb5G-0-11" style="edgeStyle=orthogonalEdgeStyle;rounded=0;orthogonalLoop=1;jettySize=auto;html=1;entryX=0;entryY=0.5;entryDx=0;entryDy=0;exitX=0;exitY=0;exitDx=0;exitDy=0;" edge="1" parent="1" source="oGoOd0Z_6vORa3Gb5G-0-2" target="oGoOd0Z_6vORa3Gb5G-0-5">
          <mxGeometry relative="1" as="geometry">
            <Array as="points">
              <mxPoint x="78" y="140" />
              <mxPoint x="80" y="140" />
              <mxPoint x="80" y="75" />
              <mxPoint x="40" y="75" />
            </Array>
          </mxGeometry>
        </mxCell>
        <mxCell id="oGoOd0Z_6vORa3Gb5G-0-21" style="edgeStyle=orthogonalEdgeStyle;rounded=0;orthogonalLoop=1;jettySize=auto;html=1;entryX=0;entryY=0;entryDx=0;entryDy=0;" edge="1" parent="1" source="oGoOd0Z_6vORa3Gb5G-0-2" target="oGoOd0Z_6vORa3Gb5G-0-4">
          <mxGeometry relative="1" as="geometry">
            <Array as="points">
              <mxPoint x="548" y="190" />
            </Array>
          </mxGeometry>
        </mxCell>
        <mxCell id="oGoOd0Z_6vORa3Gb5G-0-2" value="&lt;div&gt;SAAKM_READY&lt;/div&gt;" style="ellipse;whiteSpace=wrap;html=1;fontSize=16;fontStyle=0" vertex="1" parent="1">
          <mxGeometry x="50" y="160" width="190" height="90" as="geometry" />
        </mxCell>
        <mxCell id="oGoOd0Z_6vORa3Gb5G-0-16" style="edgeStyle=orthogonalEdgeStyle;rounded=0;orthogonalLoop=1;jettySize=auto;html=1;entryX=0.5;entryY=1;entryDx=0;entryDy=0;" edge="1" parent="1" source="oGoOd0Z_6vORa3Gb5G-0-3" target="oGoOd0Z_6vORa3Gb5G-0-2">
          <mxGeometry relative="1" as="geometry" />
        </mxCell>
        <mxCell id="oGoOd0Z_6vORa3Gb5G-0-3" value="&lt;div&gt;SAAKM_READY_TICK&lt;/div&gt;" style="ellipse;whiteSpace=wrap;html=1;fontSize=16;fontStyle=0" vertex="1" parent="1">
          <mxGeometry x="50" y="280" width="190" height="90" as="geometry" />
        </mxCell>
        <mxCell id="oGoOd0Z_6vORa3Gb5G-0-10" style="edgeStyle=orthogonalEdgeStyle;rounded=0;orthogonalLoop=1;jettySize=auto;html=1;entryX=1;entryY=0.5;entryDx=0;entryDy=0;" edge="1" parent="1" source="oGoOd0Z_6vORa3Gb5G-0-4" target="oGoOd0Z_6vORa3Gb5G-0-6">
          <mxGeometry relative="1" as="geometry">
            <Array as="points">
              <mxPoint x="600" y="405" />
            </Array>
          </mxGeometry>
        </mxCell>
        <mxCell id="oGoOd0Z_6vORa3Gb5G-0-15" style="edgeStyle=orthogonalEdgeStyle;rounded=0;orthogonalLoop=1;jettySize=auto;html=1;entryX=1;entryY=0.5;entryDx=0;entryDy=0;" edge="1" parent="1" source="oGoOd0Z_6vORa3Gb5G-0-4" target="oGoOd0Z_6vORa3Gb5G-0-3">
          <mxGeometry relative="1" as="geometry" />
        </mxCell>
        <mxCell id="oGoOd0Z_6vORa3Gb5G-0-18" style="edgeStyle=orthogonalEdgeStyle;rounded=0;orthogonalLoop=1;jettySize=auto;html=1;entryX=0.5;entryY=1;entryDx=0;entryDy=0;" edge="1" parent="1" source="oGoOd0Z_6vORa3Gb5G-0-4" target="oGoOd0Z_6vORa3Gb5G-0-7">
          <mxGeometry relative="1" as="geometry" />
        </mxCell>
        <mxCell id="oGoOd0Z_6vORa3Gb5G-0-4" value="SAAKM_RUNNING" style="ellipse;whiteSpace=wrap;html=1;fontSize=16;fontStyle=0" vertex="1" parent="1">
          <mxGeometry x="520" y="220" width="190" height="90" as="geometry" />
        </mxCell>
        <mxCell id="oGoOd0Z_6vORa3Gb5G-0-20" style="edgeStyle=orthogonalEdgeStyle;rounded=0;orthogonalLoop=1;jettySize=auto;html=1;exitX=1;exitY=1;exitDx=0;exitDy=0;" edge="1" parent="1" source="oGoOd0Z_6vORa3Gb5G-0-5" target="oGoOd0Z_6vORa3Gb5G-0-2">
          <mxGeometry relative="1" as="geometry">
            <Array as="points">
              <mxPoint x="202" y="115" />
              <mxPoint x="200" y="115" />
            </Array>
          </mxGeometry>
        </mxCell>
        <mxCell id="oGoOd0Z_6vORa3Gb5G-0-5" value="SAAKM_MIGRATING" style="ellipse;whiteSpace=wrap;html=1;fontSize=16;fontStyle=0" vertex="1" parent="1">
          <mxGeometry x="40" y="30" width="190" height="90" as="geometry" />
        </mxCell>
        <mxCell id="oGoOd0Z_6vORa3Gb5G-0-6" value="SAAKM_BLOCKED" style="ellipse;whiteSpace=wrap;html=1;fontSize=16;fontStyle=0" vertex="1" parent="1">
          <mxGeometry x="310" y="360" width="190" height="90" as="geometry" />
        </mxCell>
        <mxCell id="oGoOd0Z_6vORa3Gb5G-0-7" value="SAAKM_TERMINATED" style="ellipse;whiteSpace=wrap;html=1;fontSize=16;fontStyle=0" vertex="1" parent="1">
          <mxGeometry x="680" y="110" width="190" height="90" as="geometry" />
        </mxCell>
        <mxCell id="oGoOd0Z_6vORa3Gb5G-0-14" style="edgeStyle=orthogonalEdgeStyle;rounded=0;orthogonalLoop=1;jettySize=auto;html=1;entryX=0.974;entryY=0.589;entryDx=0;entryDy=0;entryPerimeter=0;" edge="1" parent="1" source="oGoOd0Z_6vORa3Gb5G-0-4" target="oGoOd0Z_6vORa3Gb5G-0-2">
          <mxGeometry relative="1" as="geometry" />
        </mxCell>
        <mxCell id="oGoOd0Z_6vORa3Gb5G-0-66" style="edgeStyle=orthogonalEdgeStyle;rounded=0;orthogonalLoop=1;jettySize=auto;html=1;exitX=0.5;exitY=1;exitDx=0;exitDy=0;entryX=0;entryY=0.5;entryDx=0;entryDy=0;curved=1;" edge="1" parent="1" source="oGoOd0Z_6vORa3Gb5G-0-24" target="oGoOd0Z_6vORa3Gb5G-0-27">
          <mxGeometry relative="1" as="geometry" />
        </mxCell>
        <mxCell id="oGoOd0Z_6vORa3Gb5G-0-67" style="edgeStyle=orthogonalEdgeStyle;rounded=0;orthogonalLoop=1;jettySize=auto;html=1;exitX=0.5;exitY=1;exitDx=0;exitDy=0;entryX=0;entryY=0.5;entryDx=0;entryDy=0;curved=1;" edge="1" parent="1" source="oGoOd0Z_6vORa3Gb5G-0-24" target="oGoOd0Z_6vORa3Gb5G-0-36">
          <mxGeometry relative="1" as="geometry" />
        </mxCell>
        <mxCell id="oGoOd0Z_6vORa3Gb5G-0-24" value="SAAKM_NOT_QUEUED" style="ellipse;whiteSpace=wrap;html=1;fontSize=16;fontStyle=0" vertex="1" parent="1">
          <mxGeometry x="1440" y="569" width="190" height="61" as="geometry" />
        </mxCell>
        <mxCell id="oGoOd0Z_6vORa3Gb5G-0-57" style="edgeStyle=orthogonalEdgeStyle;rounded=1;orthogonalLoop=1;jettySize=auto;html=1;entryX=0.317;entryY=0.955;entryDx=0;entryDy=0;curved=0;exitX=0.319;exitY=0.043;exitDx=0;exitDy=0;exitPerimeter=0;entryPerimeter=0;" edge="1" parent="1" source="oGoOd0Z_6vORa3Gb5G-0-27" target="oGoOd0Z_6vORa3Gb5G-0-35">
          <mxGeometry relative="1" as="geometry" />
        </mxCell>
        <mxCell id="oGoOd0Z_6vORa3Gb5G-0-27" value="&lt;div&gt;SAAKM_READY&lt;/div&gt;" style="ellipse;whiteSpace=wrap;html=1;fontSize=16;fontStyle=0;fillColor=#d5e8d4;strokeColor=#82b366;" vertex="1" parent="1">
          <mxGeometry x="1640" y="630" width="190" height="61" as="geometry" />
        </mxCell>
        <mxCell id="oGoOd0Z_6vORa3Gb5G-0-42" style="edgeStyle=orthogonalEdgeStyle;rounded=0;orthogonalLoop=1;jettySize=auto;html=1;exitX=0.5;exitY=0;exitDx=0;exitDy=0;entryX=0.5;entryY=1;entryDx=0;entryDy=0;" edge="1" parent="1" source="oGoOd0Z_6vORa3Gb5G-0-29" target="oGoOd0Z_6vORa3Gb5G-0-27">
          <mxGeometry relative="1" as="geometry">
            <mxPoint x="1735" y="700" as="targetPoint" />
          </mxGeometry>
        </mxCell>
        <mxCell id="oGoOd0Z_6vORa3Gb5G-0-29" value="&lt;div&gt;SAAKM_READY_TICK&lt;/div&gt;" style="ellipse;whiteSpace=wrap;html=1;fontSize=16;fontStyle=0;fillColor=#d5e8d4;strokeColor=#82b366;" vertex="1" parent="1">
          <mxGeometry x="1640" y="730" width="190" height="61" as="geometry" />
        </mxCell>
        <mxCell id="oGoOd0Z_6vORa3Gb5G-0-63" style="edgeStyle=orthogonalEdgeStyle;rounded=0;orthogonalLoop=1;jettySize=auto;html=1;entryX=1;entryY=0.5;entryDx=0;entryDy=0;curved=1;" edge="1" parent="1" source="oGoOd0Z_6vORa3Gb5G-0-33" target="oGoOd0Z_6vORa3Gb5G-0-36">
          <mxGeometry relative="1" as="geometry" />
        </mxCell>
        <mxCell id="oGoOd0Z_6vORa3Gb5G-0-68" style="edgeStyle=orthogonalEdgeStyle;rounded=0;orthogonalLoop=1;jettySize=auto;html=1;entryX=0.5;entryY=1;entryDx=0;entryDy=0;" edge="1" parent="1" source="oGoOd0Z_6vORa3Gb5G-0-33" target="oGoOd0Z_6vORa3Gb5G-0-37">
          <mxGeometry relative="1" as="geometry" />
        </mxCell>
        <mxCell id="oGoOd0Z_6vORa3Gb5G-0-33" value="SAAKM_RUNNING" style="ellipse;whiteSpace=wrap;html=1;fontSize=16;fontStyle=0;fillColor=#9DD49D;strokeColor=#6F9957;fillStyle=auto;" vertex="1" parent="1">
          <mxGeometry x="1981" y="680" width="190" height="61" as="geometry" />
        </mxCell>
        <mxCell id="oGoOd0Z_6vORa3Gb5G-0-59" style="edgeStyle=orthogonalEdgeStyle;rounded=1;orthogonalLoop=1;jettySize=auto;html=1;entryX=0.63;entryY=0.008;entryDx=0;entryDy=0;curved=0;entryPerimeter=0;" edge="1" parent="1" source="oGoOd0Z_6vORa3Gb5G-0-35" target="oGoOd0Z_6vORa3Gb5G-0-27">
          <mxGeometry relative="1" as="geometry">
            <Array as="points">
              <mxPoint x="1760" y="621" />
              <mxPoint x="1760" y="621" />
            </Array>
          </mxGeometry>
        </mxCell>
        <mxCell id="oGoOd0Z_6vORa3Gb5G-0-35" value="SAAKM_MIGRATING" style="ellipse;whiteSpace=wrap;html=1;fontSize=16;fontStyle=0;fillColor=#dae8fc;strokeColor=#6c8ebf;" vertex="1" parent="1">
          <mxGeometry x="1640" y="540" width="190" height="61" as="geometry" />
        </mxCell>
        <mxCell id="oGoOd0Z_6vORa3Gb5G-0-36" value="SAAKM_BLOCKED" style="ellipse;whiteSpace=wrap;html=1;fontSize=16;fontStyle=0;fillColor=#fff2cc;strokeColor=#d6b656;" vertex="1" parent="1">
          <mxGeometry x="1810" y="800" width="190" height="61" as="geometry" />
        </mxCell>
        <mxCell id="oGoOd0Z_6vORa3Gb5G-0-37" value="SAAKM_TERMINATED" style="ellipse;whiteSpace=wrap;html=1;fontSize=16;fontStyle=0;fillColor=#f8cecc;strokeColor=#b85450;" vertex="1" parent="1">
          <mxGeometry x="1981" y="580" width="190" height="61" as="geometry" />
        </mxCell>
        <mxCell id="oGoOd0Z_6vORa3Gb5G-0-49" value="" style="endArrow=none;html=1;rounded=0;entryX=0;entryY=0.5;entryDx=0;entryDy=0;" edge="1" parent="1" target="oGoOd0Z_6vORa3Gb5G-0-33">
          <mxGeometry width="50" height="50" relative="1" as="geometry">
            <mxPoint x="1920" y="710" as="sourcePoint" />
            <mxPoint x="1790" y="650" as="targetPoint" />
          </mxGeometry>
        </mxCell>
        <mxCell id="oGoOd0Z_6vORa3Gb5G-0-52" value="" style="curved=1;endArrow=classic;html=1;rounded=0;entryX=1;entryY=0.5;entryDx=0;entryDy=0;" edge="1" parent="1" target="oGoOd0Z_6vORa3Gb5G-0-27">
          <mxGeometry width="50" height="50" relative="1" as="geometry">
            <mxPoint x="1920" y="710" as="sourcePoint" />
            <mxPoint x="1950" y="640" as="targetPoint" />
            <Array as="points">
              <mxPoint x="1890" y="670" />
            </Array>
          </mxGeometry>
        </mxCell>
        <mxCell id="oGoOd0Z_6vORa3Gb5G-0-53" value="" style="curved=1;endArrow=classic;html=1;rounded=0;entryX=1;entryY=0.5;entryDx=0;entryDy=0;" edge="1" parent="1" target="oGoOd0Z_6vORa3Gb5G-0-29">
          <mxGeometry width="50" height="50" relative="1" as="geometry">
            <mxPoint x="1920" y="710" as="sourcePoint" />
            <mxPoint x="1830" y="740" as="targetPoint" />
            <Array as="points">
              <mxPoint x="1890" y="749" />
            </Array>
          </mxGeometry>
        </mxCell>
        <mxCell id="oGoOd0Z_6vORa3Gb5G-0-62" style="edgeStyle=orthogonalEdgeStyle;rounded=1;orthogonalLoop=1;jettySize=auto;html=1;exitX=1;exitY=0;exitDx=0;exitDy=0;entryX=0.032;entryY=0.315;entryDx=0;entryDy=0;entryPerimeter=0;curved=0;" edge="1" parent="1" source="oGoOd0Z_6vORa3Gb5G-0-27" target="oGoOd0Z_6vORa3Gb5G-0-33">
          <mxGeometry relative="1" as="geometry">
            <Array as="points">
              <mxPoint x="1930" y="639" />
              <mxPoint x="1930" y="699" />
            </Array>
          </mxGeometry>
        </mxCell>
      </root>
    </mxGraphModel>
  </diagram>
</mxfile>
